<svg width="209" height="51" viewBox="0 0 209 51" fill="none" xmlns="http://www.w3.org/2000/svg">
<path d="M11.5556 39.5C9.18519 39.5 6.98148 39.0185 4.94444 38.0556C2.90741 37.0556 1.25926 35.6481 0 33.8333L4.11111 28.6111C6.11111 31.5741 8.5 33.0556 11.2778 33.0556C15.0185 33.0556 16.8889 30.7222 16.8889 26.0556V6.27778H3.77778V0H24.2778V25.6667C24.2778 30.2593 23.2037 33.7222 21.0556 36.0556C18.9074 38.3519 15.7407 39.5 11.5556 39.5Z" fill="black"/>
<path d="M59.0894 38.8889H52.3116V34.7778C51.2746 36.2222 49.9598 37.3333 48.3672 38.1111C46.8116 38.8889 45.0894 39.2778 43.2005 39.2778C39.4968 39.2778 36.5709 38.1667 34.4227 35.9444C32.2746 33.7222 31.2005 30.4259 31.2005 26.0556V9.16667H38.3672V25C38.3672 27.5926 38.9042 29.537 39.9783 30.8333C41.0894 32.1296 42.6635 32.7778 44.7005 32.7778C46.9227 32.7778 48.682 32.037 49.9783 30.5556C51.3116 29.037 51.9783 26.8704 51.9783 24.0556V9.16667H59.0894V38.8889Z" fill="black"/>
<path d="M82.584 8.77778C86.1025 8.77778 88.9173 9.87037 91.0284 12.0556C93.1766 14.2407 94.2506 17.4815 94.2506 21.7778V38.8889H87.084V22.9444C87.084 20.3889 86.5284 18.4815 85.4173 17.2222C84.3432 15.9259 82.7692 15.2778 80.6951 15.2778C78.3988 15.2778 76.5655 16.037 75.1951 17.5556C73.8618 19.037 73.1951 21.1852 73.1951 24V38.8889H66.0284V9.16667H72.8618V13.2778C73.9358 11.8333 75.3062 10.7222 76.9729 9.94444C78.6766 9.16667 80.5469 8.77778 82.584 8.77778Z" fill="black"/>
<path d="M129.6 34.2778C129.6 44.7963 124.452 50.0556 114.156 50.0556C111.452 50.0556 108.897 49.6852 106.489 48.9444C104.082 48.2407 102.082 47.2037 100.489 45.8333L103.378 40.4444C104.638 41.5185 106.175 42.3704 107.989 43C109.841 43.6667 111.712 44 113.6 44C116.638 44 118.86 43.2778 120.267 41.8333C121.675 40.3889 122.378 38.1852 122.378 35.2222V33.1111C121.341 34.5556 120.008 35.6481 118.378 36.3889C116.749 37.1296 114.934 37.5 112.934 37.5C110.341 37.5 107.971 36.9074 105.823 35.7222C103.675 34.5 101.971 32.7963 100.712 30.6111C99.4523 28.4259 98.8227 25.9259 98.8227 23.1111C98.8227 20.2963 99.4523 17.8148 100.712 15.6667C101.971 13.4815 103.675 11.7963 105.823 10.6111C107.971 9.38889 110.341 8.77778 112.934 8.77778C115.082 8.77778 116.989 9.18518 118.656 10C120.323 10.8148 121.693 12.0185 122.767 13.6111V9.16667H129.6V34.2778ZM114.323 31.3333C116.693 31.3333 118.638 30.5741 120.156 29.0556C121.712 27.537 122.489 25.5556 122.489 23.1111C122.489 20.7037 121.712 18.7593 120.156 17.2778C118.638 15.7593 116.693 15 114.323 15C111.952 15 109.989 15.7593 108.434 17.2778C106.878 18.7593 106.1 20.7037 106.1 23.1111C106.1 25.5185 106.878 27.5 108.434 29.0556C109.989 30.5741 111.952 31.3333 114.323 31.3333Z" fill="black"/>
<path d="M178.4 38.8889H170.455L161.733 10.8889L152.733 38.8889H144.789L132.566 0H140.289L149.178 28.7778L158.455 0H165.344L174.4 29L183.511 0H190.622L178.4 38.8889Z" fill="black"/>
<path d="M195.556 39.5C193.185 39.5 190.981 39.0185 188.944 38.0556C186.907 37.0556 185.259 35.6481 184 33.8333L188.111 28.6111C190.111 31.5741 192.5 33.0556 195.278 33.0556C199.019 33.0556 200.889 30.7222 200.889 26.0556V6.27778H187.778V0H208.278V25.6667C208.278 30.2593 207.204 33.7222 205.056 36.0556C202.907 38.3519 199.741 39.5 195.556 39.5Z" fill="black"/>
</svg>
