<svg width="142" height="35" viewBox="0 0 142 35" fill="none" xmlns="http://www.w3.org/2000/svg">
<g clip-path="url(#clip0_247_386)">
<path d="M7.85117 27.1078C6.24066 27.1078 4.7434 26.7774 3.35938 26.1166C1.97537 25.4303 0.855574 24.4644 0 23.2189L2.79319 19.6351C4.15205 21.6685 5.77512 22.6852 7.66243 22.6852C10.204 22.6852 11.4748 21.0839 11.4748 17.8813V4.30828H2.56672V0H16.495V17.6144C16.495 20.7662 15.7652 23.1427 14.3057 24.744C12.8462 26.3199 10.6946 27.1078 7.85117 27.1078Z" fill="white"/>
<path d="M40.1477 26.6884H35.5426V23.867C34.8381 24.8583 33.9448 25.6208 32.8627 26.1546C31.8058 26.6884 30.6357 26.9553 29.3523 26.9553C26.8359 26.9553 24.848 26.1928 23.3885 24.6676C21.929 23.1426 21.1992 20.8804 21.1992 17.8812V6.29077H26.0685V17.1568C26.0685 18.936 26.4333 20.2704 27.1631 21.16C27.918 22.0496 28.9875 22.4945 30.3715 22.4945C31.8813 22.4945 33.0766 21.9861 33.9573 20.9694C34.8632 19.9273 35.3162 18.4404 35.3162 16.5087V6.29077H40.1477V26.6884Z" fill="white"/>
<path d="M56.1096 6.02393C58.5002 6.02393 60.4126 6.77374 61.847 8.27341C63.3065 9.77299 64.0362 11.9971 64.0362 14.9455V26.6884H59.167V15.7461C59.167 13.9923 58.7896 12.6833 58.0346 11.8191C57.3049 10.9295 56.2355 10.4847 54.8263 10.4847C53.2661 10.4847 52.0205 11.0057 51.0894 12.0479C50.1835 13.0646 49.7306 14.5388 49.7306 16.4705V26.6884H44.8613V6.29081H49.5041V9.11217C50.2338 8.12085 51.1649 7.35833 52.2973 6.82458C53.4548 6.29081 54.7256 6.02393 56.1096 6.02393Z" fill="white"/>
<path d="M88.0535 23.5239C88.0535 30.7425 84.5558 34.3518 77.5604 34.3518C75.7232 34.3518 73.9873 34.0976 72.3513 33.5893C70.7159 33.1063 69.357 32.3947 68.2747 31.4542L70.2376 27.7559C71.0936 28.493 72.1379 29.0777 73.3704 29.5098C74.6287 29.9673 75.8999 30.196 77.1827 30.196C79.2468 30.196 80.7564 29.7004 81.7124 28.7091C82.669 27.7178 83.1467 26.2055 83.1467 24.1721V22.7233C82.4421 23.7146 81.5364 24.4643 80.429 24.9727C79.3222 25.4811 78.089 25.7353 76.7302 25.7353C74.9684 25.7353 73.3582 25.3286 71.8988 24.5152C70.4394 23.6764 69.2816 22.5072 68.4262 21.0076C67.5703 19.5079 67.1426 17.7922 67.1426 15.8605C67.1426 13.9288 67.5703 12.2258 68.4262 10.7516C69.2816 9.25197 70.4394 8.09546 71.8988 7.28209C73.3582 6.44332 74.9684 6.02393 76.7302 6.02393C78.1896 6.02393 79.4852 6.30351 80.6178 6.8627C81.7504 7.42188 82.6812 8.24795 83.411 9.34091V6.29081H88.0535V23.5239ZM77.6739 21.5032C79.2841 21.5032 80.6056 20.9822 81.637 19.9401C82.6942 18.8979 83.2221 17.5381 83.2221 15.8605C83.2221 14.2084 82.6942 12.874 81.637 11.8573C80.6056 10.8152 79.2841 10.2941 77.6739 10.2941C76.063 10.2941 74.7292 10.8152 73.6727 11.8573C72.6156 12.874 72.087 14.2084 72.087 15.8605C72.087 17.5127 72.6156 18.8725 73.6727 19.9401C74.7292 20.9822 76.063 21.5032 77.6739 21.5032Z" fill="white"/>
<path d="M121.209 26.6885H115.811L109.885 7.47277L103.77 26.6885H98.373L90.0684 0H95.3156L101.355 19.7495L107.658 0H112.339L118.491 19.902L124.682 0H129.513L121.209 26.6885Z" fill="white"/>
<path d="M132.865 27.1078C131.254 27.1078 129.757 26.7774 128.373 26.1166C126.989 25.4303 125.869 24.4644 125.014 23.2189L127.807 19.6351C129.166 21.6685 130.789 22.6852 132.676 22.6852C135.218 22.6852 136.489 21.0839 136.489 17.8813V4.30828H127.581V0H141.509V17.6144C141.509 20.7662 140.779 23.1427 139.32 24.744C137.86 26.3199 135.709 27.1078 132.865 27.1078Z" fill="white"/>
</g>
<defs>
<clipPath id="clip0_247_386">
<rect width="142" height="35" fill="white"/>
</clipPath>
</defs>
</svg>
