<svg width="453" height="255" viewBox="0 0 453 255" fill="none" xmlns="http://www.w3.org/2000/svg">
<rect width="453" height="255" fill="#FAFAFA"/>
<path d="M86.3232 86.6827C86.2194 86.7056 85.8372 86.792 85.4768 86.8725C84.292 87.1427 82.6599 87.5488 81.7105 87.816C80.2973 88.2139 79.1845 88.5482 79.0376 88.6152C78.9777 88.6431 78.7705 88.7109 78.574 88.7622C78.3775 88.8136 78.1976 88.8755 78.165 88.8977C78.138 88.9251 77.9145 88.9985 77.6798 89.0667C77.4398 89.1348 77.2053 89.2138 77.1619 89.2415C77.1129 89.2692 76.9277 89.3422 76.7477 89.3987C76.1535 89.6016 75.6029 89.7986 75.4941 89.8543C75.4343 89.8821 75.2491 89.9605 75.0855 90.0168C74.922 90.0786 74.6006 90.2021 74.3772 90.2917C74.1539 90.3868 73.8325 90.5157 73.6691 90.583C73.5056 90.6447 73.2878 90.7397 73.1953 90.7844C73.0973 90.829 72.923 90.9018 72.814 90.9411C72.6996 90.986 72.5362 91.0586 72.4438 91.1086C72.3568 91.1586 72.2642 91.1978 72.2423 91.1981C72.215 91.1984 72.0353 91.2767 71.8338 91.3715C71.627 91.4664 71.3658 91.5891 71.246 91.6449C69.3407 92.5211 66.5399 94.0165 65.0191 94.9747C64.6769 95.1906 64.2965 95.418 64.1768 95.4846C64.0573 95.5513 63.9487 95.6232 63.9325 95.6451C63.9164 95.667 63.8458 95.7168 63.7697 95.7557C63.6065 95.8446 62.2928 96.7296 61.6797 97.1661C61.441 97.3373 61.186 97.5197 61.1099 97.5695C60.8766 97.7352 59.8517 98.508 59.4398 98.8388C56.9138 100.835 54.4475 103.2 52.9709 105.031C52.7282 105.327 52.281 105.881 51.9683 106.265C50.6314 107.893 50.0936 108.649 49.1878 110.158C48.5874 111.154 47.739 112.863 47.5709 113.413C47.5341 113.533 47.4757 113.675 47.4383 113.74C47.4007 113.8 47.3371 113.964 47.306 114.094C47.2693 114.225 47.2114 114.405 47.1743 114.498C46.9987 114.891 46.6872 116.197 46.4887 117.355C46.3714 118.024 46.4074 120.785 46.5358 121.397C46.8389 122.804 47.1178 123.614 47.6173 124.541C48.2176 125.646 49.59 127.164 50.8567 128.135C51.1609 128.364 51.4816 128.599 51.5754 128.652C51.6638 128.711 51.7632 128.775 51.7964 128.801C51.9238 128.914 53.3962 129.703 53.6439 129.798C53.7484 129.834 53.9137 129.908 54.0019 129.956C54.0957 130.009 54.2664 130.077 54.3873 130.114C54.5083 130.15 54.6348 130.197 54.6625 130.224C54.7289 130.272 55.7682 130.606 56.1198 130.688C56.2571 130.719 56.4166 130.766 56.4771 130.792C56.5708 130.84 57.2517 130.978 58.2068 131.15C58.5307 131.211 59.8031 131.352 60.4278 131.393C61.0966 131.444 63.6317 131.412 64.3427 131.343C65.2452 131.261 67.0222 131.043 67.3226 130.979C67.4754 130.945 67.9507 130.857 68.3878 130.781C69.5461 130.571 70.3377 130.387 72.3734 129.857C73.1921 129.64 73.9177 129.43 74.0374 129.374C74.0973 129.346 74.2555 129.295 74.3919 129.261C74.6811 129.181 75.7389 128.826 75.8913 128.754C75.9511 128.726 76.1256 128.664 76.2728 128.618C76.611 128.511 77.4176 128.213 77.6353 128.113C77.7279 128.068 77.8586 128.018 77.935 127.995C78.0113 127.972 78.1476 127.922 78.2347 127.883C78.7029 127.67 79.4654 127.351 79.4928 127.351C79.5092 127.351 79.6563 127.289 79.8196 127.211C79.9828 127.133 80.255 127.01 80.4292 126.932C81.1097 126.62 81.1097 126.62 80.7105 126.657C80.5135 126.671 80.0376 126.715 79.6439 126.758C78.7087 126.851 73.7755 126.92 72.9093 126.849C71.9555 126.775 70.3433 126.611 69.9866 126.55C68.395 126.288 66.7746 125.908 66.1579 125.65C66.0698 125.613 65.8938 125.555 65.7728 125.519C65.1791 125.342 63.6306 124.597 62.9898 124.176C61.8409 123.42 60.8539 122.484 60.1675 121.499C58.5993 119.24 58.1583 116.072 58.9161 112.448C59.0604 111.758 59.2898 110.865 59.3643 110.706C59.391 110.646 59.4541 110.45 59.501 110.271C59.548 110.091 59.606 109.917 59.6275 109.889C59.649 109.856 59.7178 109.676 59.7755 109.48C59.8332 109.284 59.923 109.034 59.9654 108.924C60.0132 108.81 60.0761 108.592 60.1069 108.434C60.1432 108.276 60.2173 108.086 60.282 108.003C60.3468 107.927 60.4592 107.735 60.5283 107.572C60.7625 107.053 61.5792 105.426 61.7774 105.087C61.8791 104.906 62.0236 104.65 62.0985 104.513C62.2801 104.163 63.2683 102.669 63.7418 102.023C65.06 100.221 66.3233 98.8268 68.4282 96.879C69.0774 96.2738 70.6813 94.962 71.533 94.3434C72.0212 93.9845 72.5367 93.6197 72.8842 93.3874C73.1067 93.2326 73.3185 93.0942 73.3455 93.0668C73.3781 93.0446 73.5246 92.9451 73.6713 92.851C74.1329 92.5521 74.5348 92.2974 74.7302 92.1701C75.5721 91.633 77.2302 90.7002 78.4541 90.0714C79.3517 89.6096 80.6358 88.9746 80.6851 88.974C80.707 88.9737 81.159 88.7726 81.6106 88.5552C81.7031 88.5106 82.0571 88.3595 82.4003 88.2195C82.7435 88.0795 83.0757 87.9396 83.1356 87.9117C83.1954 87.8784 83.3806 87.8054 83.5442 87.7491C84.0838 87.5523 84.6069 87.3503 84.7157 87.2946C84.7756 87.2667 85.179 87.1259 85.6152 86.9847C86.6185 86.6517 86.8691 86.5454 86.3232 86.6827Z" fill="#2D6DA6"/>
<path d="M97.7155 88.9135C95.2447 89.2598 92.9917 90.7645 91.4395 93.1012C91.171 93.5117 90.6369 94.5494 90.5637 94.8162C90.5428 94.8925 90.4952 95.0233 90.4526 95.1161C90.4154 95.2034 90.3212 95.5356 90.2431 95.8513C90.0405 96.6895 90.0233 97.8943 90.2034 98.6841C90.5691 100.275 91.4015 101.539 92.8292 102.677C93.3772 103.12 93.758 103.354 94.2923 103.586C94.5346 103.691 94.777 103.802 94.8266 103.829C94.9534 103.892 95.6349 104.079 96.0797 104.171C96.5848 104.273 98.2335 104.295 98.9279 104.21C100.043 104.066 101.309 103.681 102.179 103.214C103.859 102.308 105.297 100.873 106.103 99.2893C106.456 98.6011 106.593 98.2087 106.817 97.3214C106.984 96.6519 106.998 96.5161 106.989 95.7999C106.984 94.9807 106.948 94.7261 106.711 93.823C106.308 92.2655 105.426 90.9854 104.205 90.1816C103.398 89.6493 102.292 89.2131 101.387 89.0619C101.112 89.0166 100.805 88.9554 100.7 88.9296C100.464 88.8621 98.1638 88.8536 97.7155 88.9135Z" fill="#2D6DA6"/>
<path d="M92.238 111.925C92.0738 111.932 91.6527 111.97 91.3081 112.007C90.9636 112.044 90.2636 112.113 89.755 112.168C87.8409 112.366 85.4369 112.793 82.7013 113.414C80.6867 113.879 77.9699 114.679 75.3367 115.586C73.5649 116.2 73.1997 116.33 73.0201 116.414C72.9438 116.447 72.5407 116.604 72.121 116.762C70.6879 117.306 69.9145 117.636 70.1985 117.573C72.2351 117.113 74.0765 116.796 75.9792 116.56C77.2421 116.403 77.4611 116.395 79.8374 116.364C82.2739 116.333 82.3944 116.332 83.4804 116.464C85.1807 116.67 86.427 116.92 87.6533 117.312C88.7422 117.661 90.015 118.258 90.8877 118.833C92.4453 119.849 93.7952 121.319 94.5152 122.78C95.7359 125.266 95.7892 128.521 94.6628 132.013C94.4415 132.684 94.3094 133.049 93.9593 133.921C93.763 134.407 92.9785 135.985 92.5932 136.668C91.1908 139.16 89.5393 141.439 87.4719 143.744C81.8526 150.002 73.3781 156.513 64.564 161.346C64.1018 161.602 63.4331 161.968 63.0742 162.168C62.4435 162.513 59.2881 164.116 58.3956 164.545C57.4704 164.99 56.5288 165.431 56.1368 165.605C55.9136 165.705 55.3637 165.951 54.9117 166.152C53.311 166.867 52.1618 167.348 49.3562 168.475L48.9748 168.626L49.6051 168.661C49.9503 168.679 50.6786 168.675 51.2204 168.652C57.2245 168.39 63.7504 166.989 70.716 164.458C71.8988 164.03 72.2258 163.907 73.5495 163.369C78.1962 161.486 83.1529 159.014 87.4509 156.425C88.2224 155.959 89.5318 155.161 89.7327 155.029C89.8359 154.962 90.1944 154.735 90.5203 154.53C93.7736 152.459 96.0247 150.808 98.4671 148.704C104.473 143.521 108.926 138.147 111.406 133.074C112.586 130.672 113.212 128.732 113.433 126.792C113.624 125.097 113.619 124.24 113.396 122.658C113.106 120.551 112.303 118.695 111.058 117.235C110.647 116.752 109.693 115.852 109.234 115.516C108.261 114.796 106.43 113.827 105.302 113.423C102.804 112.538 100.274 112.072 96.947 111.881C96.3333 111.845 92.9931 111.872 92.238 111.925Z" fill="#2D6DA6"/>
<path d="M164.036 111.18H179.822V119.037H164.036V111.18ZM144.946 100.995H152.802V108.27C152.802 112.829 152.141 117.121 150.82 121.146C149.498 125.172 147.442 128.688 144.652 131.695C141.911 134.654 138.387 136.909 134.079 138.461L128.939 130.895C131.778 129.925 134.201 128.664 136.208 127.112C138.215 125.56 139.855 123.79 141.128 121.801C142.4 119.764 143.355 117.606 143.991 115.326C144.628 113.047 144.946 110.695 144.946 108.27V100.995ZM147.002 100.995H154.785V108.342C154.785 110.525 155.078 112.659 155.666 114.744C156.253 116.83 157.159 118.818 158.382 120.71C159.606 122.601 161.172 124.299 163.081 125.802C165.039 127.257 167.34 128.446 169.983 129.367L164.844 136.788C160.781 135.284 157.428 133.126 154.785 130.313C152.141 127.5 150.183 124.202 148.911 120.419C147.638 116.636 147.002 112.61 147.002 108.342V100.995ZM176.445 96.9207H186.283V146.609H176.445V96.9207ZM141.275 155.339H187.752V163.123H141.275V155.339ZM141.275 141.662H151.04V159.704H141.275V141.662ZM243.621 96.9207H253.387V146.536H243.621V96.9207ZM207.864 155.339H255.075V163.123H207.864V155.339ZM207.864 142.462H217.629V159.34H207.864V142.462ZM200.448 130.24H206.322C211.07 130.24 215.255 130.192 218.877 130.095C222.5 129.998 225.828 129.804 228.863 129.513C231.947 129.222 235.031 128.785 238.114 128.203L239.069 135.842C235.936 136.424 232.779 136.885 229.597 137.224C226.416 137.515 222.965 137.733 219.245 137.879C215.524 137.976 211.217 138.024 206.322 138.024H200.448V130.24ZM200.301 101.286H231.653V122.892H209.993V132.423H200.448V115.69H221.961V108.997H200.301V101.286ZM313.075 96.9207H322.399V136.206H313.075V96.9207ZM305.585 112.635H316.379V120.419H305.585V112.635ZM298.757 98.012H307.861V135.478H298.757V98.012ZM276.289 138.97H322.399V163.56H276.289V138.97ZM312.854 146.536H285.908V155.921H312.854V146.536ZM276.656 100.704H284.292V108.124C284.292 111.956 283.754 115.69 282.677 119.328C281.6 122.917 279.911 126.142 277.611 129.003C275.31 131.865 272.3 134.072 268.58 135.624L263.514 128.203C266.646 126.797 269.167 125.026 271.076 122.892C273.034 120.71 274.454 118.333 275.335 115.763C276.216 113.192 276.656 110.646 276.656 108.124V100.704ZM278.492 100.704H286.128V108.27C286.128 110.695 286.544 113.071 287.376 115.399C288.208 117.679 289.554 119.764 291.415 121.656C293.324 123.547 295.747 125.099 298.683 126.312L293.544 133.587C290.019 132.18 287.132 130.192 284.88 127.621C282.677 125.051 281.062 122.092 280.034 118.746C279.006 115.399 278.492 111.907 278.492 108.27V100.704ZM379.297 96.7752H389.062V164.36H379.297V96.7752ZM367.622 120.564H380.471V128.421H367.622V120.564ZM335.022 141.371H340.529C344.298 141.371 347.773 141.322 350.955 141.225C354.186 141.128 357.318 140.959 360.353 140.716C363.388 140.474 366.496 140.134 369.678 139.698L370.633 147.336C367.353 147.87 364.122 148.258 360.941 148.5C357.808 148.743 354.577 148.913 351.249 149.01C347.92 149.107 344.347 149.155 340.529 149.155H335.022V141.371ZM335.022 102.45H366.521V110.307H344.787V143.772H335.022V102.45ZM342.511 121.219H364.245V128.785H342.511V121.219Z" fill="#2D6DA6"/>
</svg>
