<svg width="406" height="558" viewBox="0 0 406 558" fill="none" xmlns="http://www.w3.org/2000/svg">
<rect width="406" height="558" fill="#FAFAFA"/>
<path d="M113.861 263.242V295.305H109.326V263.242H113.861ZM96.4941 265.492C101.311 265.492 104.896 269.922 104.896 276.883C104.896 283.914 101.311 288.309 96.4941 288.309C91.5723 288.309 87.9863 283.914 88.0215 276.883C87.9863 269.922 91.5723 265.492 96.4941 265.492ZM96.4941 269.535C93.998 269.535 92.3457 272.137 92.3457 276.883C92.3457 281.664 93.998 284.23 96.4941 284.23C98.9199 284.23 100.572 281.664 100.572 276.883C100.572 272.137 98.9199 269.535 96.4941 269.535ZM135.236 266.125V287.605H119.768V266.125H135.236ZM124.268 269.641V284.055H130.877V269.641H124.268ZM144.975 263.242V295.305H140.439V263.242H144.975ZM161.709 271.961C161.709 277.129 164.346 282.648 169.725 284.898L167.299 288.414C163.52 286.814 160.918 283.633 159.494 279.73C158.035 283.967 155.381 287.482 151.619 289.223L149.053 285.672C154.361 283.316 157.104 277.375 157.104 271.961V269.992H150.318V266.336H168.389V269.992H161.709V271.961ZM176.088 263.242V295.234H171.553V263.242H176.088ZM215.252 264.613V268.129H206.428C206.955 270.766 210.26 273.438 216.588 274.141L214.936 277.656C208.941 276.988 204.934 274.492 203.264 271.188C201.576 274.475 197.604 276.988 191.627 277.656L190.01 274.141C196.338 273.438 199.607 270.73 200.135 268.129H191.381V264.613H215.252ZM217.959 279.168V282.754H205.9V288.273H201.471V282.754H188.674V279.168H217.959ZM214.725 291.086V294.672H192.119V285.426H196.584V291.086H214.725ZM246.611 263.242V295.305H242.076V263.242H246.611ZM225.904 265.773V273.578H232.795V265.773H237.225V287.816H221.404V265.773H225.904ZM225.904 284.195H232.795V277.059H225.904V284.195ZM288.412 277.762V281.383H276.037V283.738C281.609 284.16 284.896 286.164 284.932 289.469C284.896 293.16 280.713 295.234 273.787 295.234C266.756 295.234 262.572 293.16 262.572 289.469C262.572 286.146 265.895 284.143 271.572 283.738V281.383H259.232V277.762H288.412ZM273.787 287.043C269.357 287.078 267.107 287.852 267.143 289.469C267.107 291.016 269.357 291.859 273.787 291.859C278.111 291.859 280.396 291.016 280.432 289.469C280.396 287.852 278.111 287.078 273.787 287.043ZM285.775 264.613V268.129H277.092C277.848 270.379 281.1 272.541 287.182 273.051L285.6 276.566C279.57 275.986 275.492 273.701 273.787 270.59C272.1 273.701 268.092 275.986 262.01 276.566L260.533 273.051C266.457 272.541 269.727 270.361 270.553 268.129H261.904V264.613H285.775ZM294.494 292.316C292.842 292.316 291.506 290.98 291.541 289.363C291.506 287.746 292.842 286.445 294.494 286.445C296.041 286.445 297.412 287.746 297.412 289.363C297.412 290.98 296.041 292.316 294.494 292.316ZM304.654 292.316C303.002 292.316 301.666 290.98 301.701 289.363C301.666 287.746 303.002 286.445 304.654 286.445C306.201 286.445 307.572 287.746 307.572 289.363C307.572 290.98 306.201 292.316 304.654 292.316ZM314.814 292.316C313.162 292.316 311.826 290.98 311.861 289.363C311.826 287.746 313.162 286.445 314.814 286.445C316.361 286.445 317.732 287.746 317.732 289.363C317.732 290.98 316.361 292.316 314.814 292.316Z" fill="black"/>
</svg>
